<svg width="32" height="32" viewBox="0 0 32 32" fill="none" xmlns="http://www.w3.org/2000/svg">
<g clip-path="url(#clip0_16_33)">
<path d="M16 0C12.8355 0 9.74207 0.938383 7.11088 2.69649C4.4797 4.45459 2.42894 6.95345 1.21793 9.87706C0.00693255 12.8007 -0.309921 16.0177 0.307443 19.1214C0.924806 22.2251 2.44866 25.0761 4.6863 27.3137C6.92394 29.5513 9.77486 31.0752 12.8786 31.6926C15.9823 32.3099 19.1993 31.9931 22.1229 30.7821C25.0466 29.5711 27.5454 27.5203 29.3035 24.8891C31.0616 22.2579 32 19.1645 32 16C31.9955 11.7579 30.3084 7.69085 27.3088 4.69124C24.3091 1.69163 20.2421 0.00447972 16 0ZM16 29.5385C13.3223 29.5385 10.7048 28.7444 8.47844 27.2568C6.25205 25.7692 4.51679 23.6548 3.4921 21.1809C2.4674 18.7071 2.1993 15.985 2.72168 13.3588C3.24407 10.7326 4.53348 8.32025 6.42687 6.42686C8.32026 4.53347 10.7326 3.24406 13.3588 2.72168C15.985 2.19929 18.7071 2.4674 21.1809 3.49209C23.6548 4.51679 25.7692 6.25204 27.2568 8.47843C28.7444 10.7048 29.5385 13.3223 29.5385 16C29.5344 19.5894 28.1067 23.0306 25.5686 25.5686C23.0306 28.1067 19.5894 29.5344 16 29.5385Z" fill="#EDDDC2"/>
<path d="M22.658 13.5043L16.8247 8.30436C16.6059 8.10948 16.3093 8 16 8C15.6907 8 15.3941 8.10948 15.1753 8.30436L9.34199 13.5043C9.23312 13.6006 9.14683 13.7153 9.08812 13.8416C9.02941 13.9679 8.99946 14.1034 9.00001 14.2401V20.48C9.00001 20.6179 9.06147 20.7502 9.17086 20.8477C9.28026 20.9452 9.42863 21 9.58334 21H14.25C14.4047 21 14.5531 20.9452 14.6625 20.8477C14.7719 20.7502 14.8333 20.6179 14.8333 20.48V16.8401H17.1667V20.48C17.1667 20.6179 17.2281 20.7502 17.3375 20.8477C17.4469 20.9452 17.5953 21 17.75 21H22.4167C22.5714 21 22.7197 20.9452 22.8291 20.8477C22.9385 20.7502 23 20.6179 23 20.48V14.2401C23.0005 14.1034 22.9706 13.9679 22.9119 13.8416C22.8532 13.7153 22.7669 13.6006 22.658 13.5043ZM21.8333 19.96H18.3333V16.3201C18.3333 16.1821 18.2719 16.0499 18.1625 15.9524C18.0531 15.8549 17.9047 15.8001 17.75 15.8001H14.25C14.0953 15.8001 13.9469 15.8549 13.8375 15.9524C13.7281 16.0499 13.6667 16.1821 13.6667 16.3201V19.96H10.1667V14.2401L16 9.04015L21.8333 14.2401V19.96Z" fill="#EDDDC2"/>
</g>
<defs>
<clipPath id="clip0_16_33">
<rect width="32" height="32" fill="white"/>
</clipPath>
</defs>
</svg>
