<svg width="32" height="32" viewBox="0 0 32 32" fill="none" xmlns="http://www.w3.org/2000/svg">
<g clip-path="url(#clip0_12_4)">
<circle cx="16" cy="16" r="15" fill=""/>
<path d="M16 0C12.8355 0 9.74207 0.938383 7.11088 2.69649C4.4797 4.45459 2.42894 6.95345 1.21793 9.87706C0.00693255 12.8007 -0.309921 16.0177 0.307443 19.1214C0.924806 22.2251 2.44866 25.0761 4.6863 27.3137C6.92394 29.5513 9.77486 31.0752 12.8786 31.6926C15.9823 32.3099 19.1993 31.9931 22.1229 30.7821C25.0466 29.5711 27.5454 27.5203 29.3035 24.8891C31.0616 22.2579 32 19.1645 32 16C31.9955 11.7579 30.3084 7.69085 27.3088 4.69124C24.3091 1.69163 20.2421 0.00447972 16 0ZM16 29.5385C13.3223 29.5385 10.7048 28.7444 8.47844 27.2568C6.25205 25.7692 4.51679 23.6548 3.4921 21.1809C2.4674 18.7071 2.1993 15.985 2.72168 13.3588C3.24407 10.7326 4.53348 8.32025 6.42687 6.42686C8.32026 4.53347 10.7326 3.24406 13.3588 2.72168C15.985 2.19929 18.7071 2.4674 21.1809 3.49209C23.6548 4.51679 25.7692 6.25204 27.2568 8.47843C28.7444 10.7048 29.5385 13.3223 29.5385 16C29.5344 19.5894 28.1067 23.0306 25.5686 25.5686C23.0306 28.1067 19.5894 29.5344 16 29.5385ZM18.4615 23.3846C18.4615 23.711 18.3319 24.0241 18.1011 24.2549C17.8702 24.4857 17.5572 24.6154 17.2308 24.6154C16.5779 24.6154 15.9518 24.356 15.4902 23.8944C15.0286 23.4328 14.7692 22.8067 14.7692 22.1538V16C14.4428 16 14.1298 15.8703 13.8989 15.6395C13.6681 15.4087 13.5385 15.0956 13.5385 14.7692C13.5385 14.4428 13.6681 14.1298 13.8989 13.8989C14.1298 13.6681 14.4428 13.5385 14.7692 13.5385C15.4221 13.5385 16.0482 13.7978 16.5098 14.2594C16.9714 14.7211 17.2308 15.3472 17.2308 16V22.1538C17.5572 22.1538 17.8702 22.2835 18.1011 22.5143C18.3319 22.7451 18.4615 23.0582 18.4615 23.3846ZM13.5385 9.23077C13.5385 8.86563 13.6467 8.5087 13.8496 8.2051C14.0525 7.9015 14.3408 7.66487 14.6781 7.52514C15.0155 7.38541 15.3867 7.34885 15.7448 7.42009C16.1029 7.49132 16.4319 7.66715 16.69 7.92534C16.9482 8.18353 17.1241 8.51248 17.1953 8.8706C17.2665 9.22872 17.23 9.59992 17.0902 9.93726C16.9505 10.2746 16.7139 10.5629 16.4103 10.7658C16.1067 10.9686 15.7498 11.0769 15.3846 11.0769C14.895 11.0769 14.4254 10.8824 14.0792 10.5362C13.733 10.19 13.5385 9.7204 13.5385 9.23077Z" fill="#EDDDC2"/>
</g>
<defs>
<clipPath id="clip0_12_4">
<rect width="32" height="32" fill="white"/>
</clipPath>
</defs>
</svg>
