<svg width="32" height="32" viewBox="0 0 32 32" fill="none" xmlns="http://www.w3.org/2000/svg">
<g clip-path="url(#clip0_12_19)">
<path d="M16 0C12.8355 0 9.74207 0.938383 7.11088 2.69649C4.4797 4.45459 2.42894 6.95345 1.21793 9.87706C0.00693255 12.8007 -0.309921 16.0177 0.307443 19.1214C0.924806 22.2251 2.44866 25.0761 4.6863 27.3137C6.92394 29.5513 9.77486 31.0752 12.8786 31.6926C15.9823 32.3099 19.1993 31.9931 22.1229 30.7821C25.0466 29.5711 27.5454 27.5203 29.3035 24.8891C31.0616 22.2579 32 19.1645 32 16C31.9955 11.7579 30.3084 7.69085 27.3088 4.69124C24.3091 1.69163 20.2421 0.00447972 16 0ZM16 29.5385C13.3223 29.5385 10.7048 28.7444 8.47844 27.2568C6.25205 25.7692 4.51679 23.6548 3.4921 21.1809C2.4674 18.7071 2.1993 15.985 2.72168 13.3588C3.24407 10.7326 4.53348 8.32025 6.42687 6.42686C8.32026 4.53347 10.7326 3.24406 13.3588 2.72168C15.985 2.19929 18.7071 2.4674 21.1809 3.49209C23.6548 4.51679 25.7692 6.25204 27.2568 8.47843C28.7444 10.7048 29.5385 13.3223 29.5385 16C29.5344 19.5894 28.1067 23.0306 25.5686 25.5686C23.0306 28.1067 19.5894 29.5344 16 29.5385Z" fill="#EDDDC2"/>
<path d="M23.2811 10.5462C23.2141 10.494 23.1361 10.4577 23.053 10.4402C22.9698 10.4226 22.8838 10.4242 22.8014 10.4448L18.5266 11.5134L14.2364 9.3679C14.1168 9.30828 13.9799 9.2934 13.8503 9.32594L9.37483 10.4448C9.2538 10.4751 9.14635 10.5449 9.06957 10.6432C8.99279 10.7416 8.95107 10.8627 8.95105 10.9875V21.0574C8.95106 21.1424 8.97045 21.2263 9.00773 21.3027C9.04502 21.3791 9.09922 21.446 9.16623 21.4983C9.23324 21.5506 9.31128 21.587 9.39444 21.6046C9.4776 21.6222 9.56368 21.6207 9.64615 21.6001L13.921 20.5315L18.2112 22.677C18.2891 22.7154 18.3747 22.7355 18.4615 22.7357C18.5073 22.7357 18.5528 22.7301 18.5972 22.7189L23.0727 21.6001C23.1938 21.5698 23.3012 21.5 23.378 21.4017C23.4548 21.3033 23.4965 21.1822 23.4965 21.0574V10.9875C23.4965 10.9024 23.4771 10.8184 23.4398 10.742C23.4025 10.6655 23.3482 10.5986 23.2811 10.5462ZM14.5455 10.7735L17.9021 12.4518V21.2714L14.5455 19.5931V10.7735ZM10.0699 11.4245L13.4266 10.5854V19.5015L10.0699 20.3406V11.4245ZM22.3776 20.6203L19.021 21.4595V12.5434L22.3776 11.7043V20.6203Z" fill="#EDDDC2"/>
</g>
<defs>
<clipPath id="clip0_12_19">
<rect width="32" height="32" fill="white"/>
</clipPath>
</defs>
</svg>
