<svg width="32" height="32" viewBox="0 0 32 32" fill="none" xmlns="http://www.w3.org/2000/svg">
<g clip-path="url(#clip0_12_10)">
<path d="M16 0C12.8355 0 9.74207 0.938383 7.11088 2.69649C4.4797 4.45459 2.42894 6.95345 1.21793 9.87706C0.00693255 12.8007 -0.309921 16.0177 0.307443 19.1214C0.924806 22.2251 2.44866 25.0761 4.6863 27.3137C6.92394 29.5513 9.77486 31.0752 12.8786 31.6926C15.9823 32.3099 19.1993 31.9931 22.1229 30.7821C25.0466 29.5711 27.5454 27.5203 29.3035 24.8891C31.0616 22.2579 32 19.1645 32 16C31.9955 11.7579 30.3084 7.69085 27.3088 4.69124C24.3091 1.69163 20.2421 0.00447972 16 0ZM16 29.5385C13.3223 29.5385 10.7048 28.7444 8.47844 27.2568C6.25205 25.7692 4.51679 23.6548 3.4921 21.1809C2.4674 18.7071 2.1993 15.985 2.72168 13.3588C3.24407 10.7326 4.53348 8.32025 6.42687 6.42686C8.32026 4.53347 10.7326 3.24406 13.3588 2.72168C15.985 2.19929 18.7071 2.4674 21.1809 3.49209C23.6548 4.51679 25.7692 6.25204 27.2568 8.47843C28.7444 10.7048 29.5385 13.3223 29.5385 16C29.5344 19.5894 28.1067 23.0306 25.5686 25.5686C23.0306 28.1067 19.5894 29.5344 16 29.5385Z" fill="#EDDDC2"/>
<path d="M25 9.63636V12.8182C25 12.987 24.9271 13.1488 24.7972 13.2682C24.6674 13.3875 24.4913 13.4545 24.3077 13.4545C24.1241 13.4545 23.948 13.3875 23.8182 13.2682C23.6883 13.1488 23.6154 12.987 23.6154 12.8182V10.2727H20.8462C20.6625 10.2727 20.4865 10.2057 20.3566 10.0863C20.2268 9.967 20.1538 9.80514 20.1538 9.63636C20.1538 9.46759 20.2268 9.30573 20.3566 9.18639C20.4865 9.06705 20.6625 9 20.8462 9H24.3077C24.4913 9 24.6674 9.06705 24.7972 9.18639C24.9271 9.30573 25 9.46759 25 9.63636ZM11.1538 21.7273H8.38462V19.1818C8.38462 19.013 8.31168 18.8512 8.18184 18.7318C8.05201 18.6125 7.87592 18.5455 7.69231 18.5455C7.5087 18.5455 7.33261 18.6125 7.20277 18.7318C7.07294 18.8512 7 19.013 7 19.1818V22.3636C7 22.5324 7.07294 22.6943 7.20277 22.8136C7.33261 22.933 7.5087 23 7.69231 23H11.1538C11.3375 23 11.5135 22.933 11.6434 22.8136C11.7732 22.6943 11.8462 22.5324 11.8462 22.3636C11.8462 22.1949 11.7732 22.033 11.6434 21.9137C11.5135 21.7943 11.3375 21.7273 11.1538 21.7273ZM24.3077 18.5455C24.1241 18.5455 23.948 18.6125 23.8182 18.7318C23.6883 18.8512 23.6154 19.013 23.6154 19.1818V21.7273H20.8462C20.6625 21.7273 20.4865 21.7943 20.3566 21.9137C20.2268 22.033 20.1538 22.1949 20.1538 22.3636C20.1538 22.5324 20.2268 22.6943 20.3566 22.8136C20.4865 22.933 20.6625 23 20.8462 23H24.3077C24.4913 23 24.6674 22.933 24.7972 22.8136C24.9271 22.6943 25 22.5324 25 22.3636V19.1818C25 19.013 24.9271 18.8512 24.7972 18.7318C24.6674 18.6125 24.4913 18.5455 24.3077 18.5455ZM7.69231 13.4545C7.87592 13.4545 8.05201 13.3875 8.18184 13.2682C8.31168 13.1488 8.38462 12.987 8.38462 12.8182V10.2727H11.1538C11.3375 10.2727 11.5135 10.2057 11.6434 10.0863C11.7732 9.967 11.8462 9.80514 11.8462 9.63636C11.8462 9.46759 11.7732 9.30573 11.6434 9.18639C11.5135 9.06705 11.3375 9 11.1538 9H7.69231C7.5087 9 7.33261 9.06705 7.20277 9.18639C7.07294 9.30573 7 9.46759 7 9.63636V12.8182C7 12.987 7.07294 13.1488 7.20277 13.2682C7.33261 13.3875 7.5087 13.4545 7.69231 13.4545ZM21.1923 19.1023L16.3462 21.6477C16.2415 21.7027 16.1231 21.7316 16.0026 21.7316C15.8821 21.7316 15.7637 21.7027 15.659 21.6477L10.8077 19.1023C10.7015 19.0459 10.6135 18.9647 10.5527 18.8669C10.4919 18.769 10.4604 18.6581 10.4615 18.5455V13.4545C10.4604 13.3419 10.4919 13.231 10.5527 13.1331C10.6135 13.0353 10.7015 12.9541 10.8077 12.8977L15.6538 10.3523C15.7585 10.2973 15.8769 10.2684 15.9974 10.2684C16.1179 10.2684 16.2363 10.2973 16.341 10.3523L21.1871 12.8977C21.2933 12.9541 21.3813 13.0353 21.4421 13.1331C21.5029 13.231 21.5344 13.3419 21.5333 13.4545V18.5455C21.5349 18.6577 21.5042 18.7683 21.4443 18.8661C21.3844 18.9638 21.2975 19.0453 21.1923 19.1023ZM12.5488 13.4545L16 15.2674L19.4512 13.4545L16 11.6417L12.5488 13.4545ZM11.8462 18.1764L15.3077 19.994V16.3691L11.8462 14.5515V18.1764ZM20.1538 18.1764V14.5515L16.6923 16.3691V19.994L20.1538 18.1764Z" fill="#EDDDC2"/>
</g>
<defs>
<clipPath id="clip0_12_10">
<rect width="32" height="32" fill="white"/>
</clipPath>
</defs>
</svg>
